<svg width="229" height="32" viewBox="0 0 229 32" fill="none" xmlns="http://www.w3.org/2000/svg">
<path d="M11.0214 6.46656L9.33471 7.09501C9.20049 7.14403 9.11101 7.27329 9.11101 7.41592C9.11101 7.55854 9.20049 7.6878 9.33471 7.73683L11.0214 8.36527L11.6522 10.0456C11.7014 10.1793 11.8311 10.2684 11.9743 10.2684C12.1175 10.2684 12.2472 10.1793 12.2964 10.0456L12.9272 8.36527L14.6139 7.73683C14.7481 7.6878 14.8376 7.55854 14.8376 7.41592C14.8376 7.27329 14.7481 7.14403 14.6139 7.09501L12.9272 6.46656L12.2964 4.78624C12.2472 4.65253 12.1175 4.56339 11.9743 4.56339C11.8311 4.56339 11.7014 4.65253 11.6522 4.78624L11.0214 6.46656ZM2.58359 22.1867C1.74697 23.0201 1.74697 24.3751 2.58359 25.213L4.13156 26.7552C4.96818 27.5887 6.32824 27.5887 7.16934 26.7552L24.2283 9.75588C25.0649 8.92241 25.0649 7.56746 24.2283 6.72953L22.6804 5.19183C21.8437 4.35836 20.4837 4.35836 19.6426 5.19183L2.58359 22.1867ZM22.2016 8.24493L17.5041 12.9249L16.4616 11.8864L21.1592 7.20643L22.2016 8.24493ZM0.856661 9.78708C0.655335 9.86285 0.521118 10.0545 0.521118 10.2684C0.521118 10.4824 0.655335 10.674 0.856661 10.7498L3.38442 11.6947L4.33288 14.213C4.40894 14.4135 4.60132 14.5472 4.81606 14.5472C5.03081 14.5472 5.22319 14.4135 5.29925 14.213L6.24771 11.6947L8.77547 10.7498C8.97679 10.674 9.11101 10.4824 9.11101 10.2684C9.11101 10.0545 8.97679 9.86285 8.77547 9.78708L6.24771 8.84218L5.29925 6.32393C5.22319 6.12336 5.03081 5.98965 4.81606 5.98965C4.60132 5.98965 4.40894 6.12336 4.33288 6.32393L3.38442 8.84218L0.856661 9.78708ZM16.6048 21.1972C16.4035 21.273 16.2693 21.4646 16.2693 21.6786C16.2693 21.8925 16.4035 22.0842 16.6048 22.1599L19.1326 23.1048L20.081 25.6231C20.1571 25.8237 20.3495 25.9574 20.5642 25.9574C20.7789 25.9574 20.9713 25.8237 21.0474 25.6231L21.9959 23.1048L24.5236 22.1599C24.7249 22.0842 24.8591 21.8925 24.8591 21.6786C24.8591 21.4646 24.7249 21.273 24.5236 21.1972L21.9959 20.2523L21.0474 17.7341C20.9713 17.5335 20.7789 17.3998 20.5642 17.3998C20.3495 17.3998 20.1571 17.5335 20.081 17.7341L19.1326 20.2523L16.6048 21.1972Z" fill="white"/>
<path d="M32.9785 21.057C34.597 22.6754 36.9605 23.7801 40.2488 23.7801C44.8731 23.7801 47.1081 21.4166 47.1081 18.2824C47.1081 14.4803 43.5115 13.6325 40.6856 12.9903C38.7074 12.5278 37.2688 12.1682 37.2688 11.0121C37.2688 9.98451 38.1422 9.26518 39.7864 9.26518C41.4563 9.26518 43.306 9.85606 44.6932 11.1406L46.7228 8.46879C45.0272 6.90169 42.7665 6.07961 40.0433 6.07961C36.01 6.07961 33.5437 8.39172 33.5437 11.2433C33.5437 15.0712 37.1403 15.8419 39.9406 16.4841C41.9187 16.9465 43.4087 17.3833 43.4087 18.6678C43.4087 19.644 42.4325 20.5945 40.4287 20.5945C38.0652 20.5945 36.1898 19.5412 34.9824 18.2824L32.9785 21.057ZM61.3047 23.4718H64.9784V6.33651H61.3047V13.0673H53.2123V6.33651H49.5643V23.4718H53.2123V16.2786H61.3047V23.4718ZM67.5332 14.917C67.5332 20.0807 71.3096 23.7801 76.4733 23.7801C81.6628 23.7801 85.4392 20.0807 85.4392 14.917C85.4392 9.7533 81.6628 6.05392 76.4733 6.05392C71.3096 6.05392 67.5332 9.7533 67.5332 14.917ZM81.6884 14.917C81.6884 18.1026 79.6332 20.5432 76.4733 20.5432C73.3135 20.5432 71.2839 18.1026 71.2839 14.917C71.2839 11.7057 73.3135 9.29087 76.4733 9.29087C79.6332 9.29087 81.6884 11.7057 81.6884 14.917ZM87.9992 23.4718H91.6472V17.3319H96.0145C99.7139 17.3319 101.769 14.8399 101.769 11.8599C101.769 8.85414 99.7396 6.33651 96.0145 6.33651H87.9992V23.4718ZM98.044 11.8342C98.044 13.2728 96.965 14.1977 95.5264 14.1977H91.6472V9.4707H95.5264C96.965 9.4707 98.044 10.4212 98.044 11.8342ZM104.03 23.4718H107.678V6.33651H104.03V23.4718ZM111.08 23.4718H114.728V16.33H123.026V13.1958H114.728V9.4707H123.206V6.33651H111.08V23.4718ZM130.535 23.4718H134.183V16.4584L140.734 6.33651H136.572L132.359 13.2215L128.094 6.33651H123.933L130.535 16.4584V23.4718ZM148.888 23.4718H152.536V16.33H160.834V13.1958H152.536V9.4707H161.014V6.33651H148.888V23.4718ZM163.564 23.4718H175.69V20.3119H167.212V16.33H175.51V13.1958H167.212V9.4707H175.69V6.33651H163.564V23.4718ZM182.498 23.4718H186.172V9.54777H191.156V6.33651H177.489V9.54777H182.498V23.4718ZM201.037 23.7801C204.942 23.7801 207.099 21.6992 208.333 19.5669L205.198 18.0512C204.479 19.4642 202.938 20.5432 201.037 20.5432C198.057 20.5432 195.796 18.154 195.796 14.917C195.796 11.6801 198.057 9.29087 201.037 9.29087C202.938 9.29087 204.479 10.3956 205.198 11.7828L208.333 10.2414C207.125 8.10913 204.942 6.05392 201.037 6.05392C196.027 6.05392 192.045 9.65053 192.045 14.917C192.045 20.1835 196.027 23.7801 201.037 23.7801ZM222.244 23.4718H225.918V6.33651H222.244V13.0673H214.152V6.33651H210.504V23.4718H214.152V16.2786H222.244V23.4718Z" fill="white"/>
</svg>
