<svg width="37" height="35" viewBox="0 0 37 35" fill="none" xmlns="http://www.w3.org/2000/svg">
<path d="M15.7504 2.9323L13.2204 3.89592C13.0191 3.97109 12.8848 4.16928 12.8848 4.38798C12.8848 4.60667 13.0191 4.80486 13.2204 4.88004L15.7504 5.84366L16.6966 8.42015C16.7704 8.62518 16.965 8.76186 17.1798 8.76186C17.3945 8.76186 17.5891 8.62518 17.663 8.42015L18.6092 5.84366L21.1392 4.88004C21.3405 4.80486 21.4747 4.60667 21.4747 4.38798C21.4747 4.16928 21.3405 3.97109 21.1392 3.89592L18.6092 2.9323L17.663 0.355808C17.5891 0.150783 17.3945 0.0140991 17.1798 0.0140991C16.965 0.0140991 16.7704 0.150783 16.6966 0.355808L15.7504 2.9323ZM3.0937 27.0365C1.83877 28.3145 1.83877 30.3921 3.0937 31.6769L5.41566 34.0415C6.67059 35.3195 8.71069 35.3195 9.97233 34.0415L35.5608 7.97593C36.8157 6.69793 36.8157 4.62034 35.5608 3.33551L33.2389 0.97772C31.9839 -0.300273 29.9438 -0.300273 28.6822 0.97772L3.0937 27.0365ZM32.5208 5.65914L25.4744 12.835L23.9108 11.2427L30.9572 4.06677L32.5208 5.65914ZM0.503314 8.02377C0.201326 8.13995 0 8.43382 0 8.76186C0 9.0899 0.201326 9.38377 0.503314 9.49995L4.29495 10.9488L5.71765 14.8101C5.83173 15.1177 6.1203 15.3227 6.44242 15.3227C6.76454 15.3227 7.05311 15.1177 7.16719 14.8101L8.58989 10.9488L12.3815 9.49995C12.6835 9.38377 12.8848 9.0899 12.8848 8.76186C12.8848 8.43382 12.6835 8.13995 12.3815 8.02377L8.58989 6.57492L7.16719 2.7136C7.05311 2.40606 6.76454 2.20104 6.44242 2.20104C6.1203 2.20104 5.83173 2.40606 5.71765 2.7136L4.29495 6.57492L0.503314 8.02377ZM24.1255 25.5193C23.8235 25.6355 23.6222 25.9293 23.6222 26.2574C23.6222 26.5854 23.8235 26.8793 24.1255 26.9955L27.9172 28.4443L29.3399 32.3056C29.4539 32.6132 29.7425 32.8182 30.0646 32.8182C30.3867 32.8182 30.6753 32.6132 30.7894 32.3056L32.2121 28.4443L36.0037 26.9955C36.3057 26.8793 36.507 26.5854 36.507 26.2574C36.507 25.9293 36.3057 25.6355 36.0037 25.5193L32.2121 24.0704L30.7894 20.2091C30.6753 19.9016 30.3867 19.6966 30.0646 19.6966C29.7425 19.6966 29.4539 19.9016 29.3399 20.2091L27.9172 24.0704L24.1255 25.5193Z" fill="white"/>
</svg>
